<svg width="158" height="48" viewBox="0 0 158 48" fill="none" xmlns="http://www.w3.org/2000/svg">
<g clip-path="url(#clip0_459_65795)">
<path fill-rule="evenodd" clip-rule="evenodd" d="M28.735 6.69531H3.877C1.736 6.69531 0 8.43131 0 10.5723V35.4303C0 37.5713 1.736 39.3073 3.877 39.3073H28.735C30.876 39.3073 32.612 37.5713 32.612 35.4303V10.5723C32.612 8.43131 30.876 6.69531 28.735 6.69531ZM14.048 30.1843C14.048 30.8963 13.471 31.4723 12.76 31.4723H7.309C6.597 31.4723 6.021 30.8953 6.021 30.1843V14.0043C6.021 13.2923 6.598 12.7163 7.309 12.7163H12.76C13.472 12.7163 14.048 13.2933 14.048 14.0043V30.1843ZM26.591 22.7563C26.591 23.4683 26.014 24.0443 25.303 24.0443H19.852C19.14 24.0443 18.564 23.4673 18.564 22.7563V14.0043C18.564 13.2923 19.141 12.7163 19.852 12.7163H25.303C26.015 12.7163 26.591 13.2933 26.591 14.0043V22.7563V22.7563Z" fill="#1868DB"/>
<path d="M146.461 38.4591C139.561 38.4591 135.513 33.3531 135.513 26.4531C135.513 19.5531 139.561 14.5391 146.461 14.5391C153.315 14.5391 157.317 19.5531 157.317 26.4531C157.317 33.3531 153.315 38.4591 146.461 38.4591ZM146.461 18.2191C141.539 18.2191 139.377 22.0831 139.377 26.4531C139.377 30.8231 141.539 34.7791 146.461 34.7791C151.337 34.7791 153.453 30.8231 153.453 26.4531C153.453 22.0831 151.337 18.2191 146.461 18.2191Z" fill="#101214"/>
<path d="M133.311 37.9547C132.989 38.0467 132.299 38.1387 131.287 38.1387C127.515 38.1387 125.123 36.3447 125.123 32.1127V5.38672H129.079V31.6527C129.079 33.7227 130.459 34.4587 132.161 34.4587C132.575 34.4587 132.851 34.4587 133.311 34.4127V37.9547Z" fill="#101214"/>
<path d="M121.317 37.9547C120.995 38.0467 120.305 38.1387 119.293 38.1387C115.521 38.1387 113.129 36.3447 113.129 32.1127V5.38672H117.085V31.6527C117.085 33.7227 118.465 34.4587 120.167 34.4587C120.581 34.4587 120.857 34.4587 121.317 34.4127V37.9547Z" fill="#101214"/>
<path d="M98.298 18.1271C94.112 18.1271 91.996 20.8411 91.582 24.8431H104.416C104.186 20.5651 102.254 18.1271 98.298 18.1271ZM107.13 37.0791C105.244 38.0911 102.346 38.4591 100 38.4591C91.398 38.4591 87.626 33.4911 87.626 26.4531C87.626 19.5071 91.49 14.5391 98.482 14.5391C105.566 14.5391 108.418 19.4611 108.418 26.4531V28.2471H91.628C92.18 32.1571 94.71 34.6871 100.138 34.6871C102.806 34.6871 105.06 34.1811 107.13 33.4451V37.0791Z" fill="#101214"/>
<path d="M77.9109 24.4306V38.0006H74.0469V15.0006H77.9109V19.0486C79.2449 16.3346 81.5449 14.4026 86.0529 14.6786V18.5426C80.9929 18.0366 77.9109 19.5546 77.9109 24.4306Z" fill="#101214"/>
<path d="M49.4141 7.77734H72.0461V11.7333H62.8001V37.9993H58.6601V11.7333H49.4141V7.77734Z" fill="#101214"/>
</g>
<defs>
<clipPath id="clip0_459_65795">
<rect width="158" height="48" fill="white"/>
</clipPath>
</defs>
</svg>
